<!-- Shape: logo -->
<svg xmlns:xlink="http://www.w3.org/1999/xlink" fill="none" width="163" xmlns="http://www.w3.org/2000/svg" style="-webkit-print-color-adjust:exact" id="screenshot-b07037b8-ce73-80fd-8002-33e4c8c31df0" version="1.1" viewBox="-527 1286 163 201" height="201">
  <g id="shape-b07037b8-ce73-80fd-8002-33e4c8c31df0" style="fill:#000000" rx="0" ry="0">
    <g id="shape-b07037b8-ce73-80fd-8002-33e4c8c31df1">
      <g class="fills" id="fills-b07037b8-ce73-80fd-8002-33e4c8c31df1">
        <rect class="cls-1" rx="0" ry="0" style="fill:#ef4343" x="-487.229384128697" y="1285.017557684596" transform="matrix(0.702282, -0.711899, 0.702282, 0.711899, -1077.719924, 51.895318)" width="38.7075058103502" height="102.4665062844972">
        </rect>
      </g>
    </g>
    <g id="shape-b07037b8-ce73-80fd-8002-33e4c8c31df2">
      <g class="fills" id="fills-b07037b8-ce73-80fd-8002-33e4c8c31df2">
        <rect class="cls-1" rx="0" ry="0" style="fill:#ef4343" x="-442.4600140314666" y="1385.5159499564427" transform="matrix(0.702282, -0.711899, 0.702282, 0.711899, -1134.969495, 112.720285)" width="38.707505810318594" height="102.4665062845063">
        </rect>
      </g>
    </g>
    <g id="shape-b07037b8-ce73-80fd-8002-33e4c8c31df3">
      <g class="fills" id="fills-b07037b8-ce73-80fd-8002-33e4c8c31df3">
        <path class="cls-2" rx="0" ry="0" style="fill:#1e1e1e" d="M-445.500,1469.118C-490.511,1469.118,-527.000,1432.129,-527.000,1386.502C-527.000,1340.874,-490.511,1303.886,-445.500,1303.886C-400.489,1303.886,-364.000,1340.874,-364.000,1386.502C-364.051,1432.108,-400.510,1469.066,-445.500,1469.118ZZM-445.500,1313.239C-485.416,1313.239,-517.774,1346.040,-517.774,1386.502C-517.774,1426.964,-485.416,1459.765,-445.500,1459.765C-405.584,1459.765,-373.226,1426.964,-373.226,1386.502C-373.272,1346.059,-405.603,1313.284,-445.500,1313.239ZZ">
        </path>
      </g>
    </g>
  </g>
</svg>