<!-- Shape: Ellipse -->
<svg xmlns:xlink="http://www.w3.org/1999/xlink" fill="none" width="15.5" xmlns="http://www.w3.org/2000/svg" style="-webkit-print-color-adjust:exact" id="screenshot-ba06154d-9ce9-80f9-8002-3cafc9df97c6" version="1.1" viewBox="3158.5 3083 15.5 15.5" height="15.5">
  <g id="shape-ba06154d-9ce9-80f9-8002-3cafc9df97c6">
    <g class="fills" id="fills-ba06154d-9ce9-80f9-8002-3cafc9df97c6">
      <path rx="0" ry="0" style="fill:#5266ff;fill-opacity:1" d="M3166.250,3083.000L3167.550,3083.966L3169.265,3083.609L3170.003,3084.974L3171.729,3085.271L3172.048,3086.980L3173.391,3087.735L3173.036,3089.466L3174.000,3090.750L3173.013,3091.997L3173.391,3093.765L3171.968,3094.495L3171.729,3096.229L3170.006,3096.534L3169.265,3097.891L3167.553,3097.518L3166.250,3098.500L3165.048,3097.494L3163.235,3097.891L3162.489,3096.461L3160.771,3096.229L3160.509,3094.444L3159.109,3093.765L3159.462,3092.033L3158.500,3090.750L3159.479,3089.518L3159.109,3087.735L3160.518,3086.922L3160.771,3085.271L3162.455,3084.899L3163.235,3083.609L3164.997,3083.981L3166.250,3083.000Z">
      </path>
    </g>
  </g>
</svg>