<!-- 
Remix Design © 2018-2023
  
Licensed under the Apache License, Version 2.0 (the "License");
you may not use this file except in compliance with the License.
You may obtain a copy of the License at

http://www.apache.org/licenses/LICENSE-2.0

Unless required by applicable law or agreed to in writing, software
distributed under the License is distributed on an "AS IS" BASIS,
WITHOUT WARRANTIES OR CONDITIONS OF ANY KIND, either express or implied.
See the License for the specific language governing permissions and
limitations under the License. -->
<svg xmlns:xlink="http://www.w3.org/1999/xlink" fill="none" width="15" xmlns="http://www.w3.org/2000/svg" style="-webkit-print-color-adjust:exact" id="screenshot-49f38eb6-2343-80b3-8002-3ca4a2b5545f" version="1.1" viewBox="2546 3583 15 14" height="14">
  <g id="shape-49f38eb6-2343-80b3-8002-3ca4a2b5545f">
    <g class="fills" id="fills-49f38eb6-2343-80b3-8002-3ca4a2b5545f">
      <path rx="0" ry="0" style="fill:#1e1e1e;fill-opacity:1" d="M2552.439,3589.458L2558.948,3583.000L2560.121,3584.163L2558.948,3585.328L2561.000,3587.363L2559.827,3588.528L2557.775,3586.491L2556.602,3587.655L2558.361,3589.400L2557.189,3590.564L2555.430,3588.818L2553.612,3590.622C2554.781,3592.384,2554.417,3594.738,2552.771,3596.072C2551.124,3597.407,2548.727,3597.289,2547.220,3595.801C2545.710,3594.308,2545.587,3591.922,2546.935,3590.284C2548.283,3588.646,2550.663,3588.289,2552.439,3589.458ZZM2551.911,3594.636C2552.569,3594.019,2552.837,3593.096,2552.611,3592.226C2552.384,3591.356,2551.700,3590.677,2550.823,3590.453C2549.947,3590.228,2549.016,3590.494,2548.394,3591.147C2547.451,3592.115,2547.465,3593.655,2548.425,3594.607C2549.384,3595.559,2550.936,3595.573,2551.911,3594.636ZZ">
      </path>
    </g>
  </g>
</svg>